TITLE ""
FILE "1Q_t_0349-0358.mp3" MP3
  TRACK 01 AUDIO
    TITLE "1Q_t_0349-0358_01"
    INDEX 01 00:00:00
  TRACK 02 AUDIO
    TITLE "1Q_t_0349-0358_02"
    INDEX 01 00:00:10
  TRACK 03 AUDIO
    TITLE "1Q_t_0349-0358_03"
    INDEX 01 00:01:08
  TRACK 04 AUDIO
    TITLE "1Q_t_0349-0358_04"
    INDEX 01 00:01:23
  TRACK 05 AUDIO
    TITLE "1Q_t_0349-0358_05"
    INDEX 01 00:02:31
  TRACK 06 AUDIO
    TITLE "1Q_t_0349-0358_06"
    INDEX 01 00:02:46
  TRACK 07 AUDIO
    TITLE "1Q_t_0349-0358_07"
    INDEX 01 00:07:34
  TRACK 08 AUDIO
    TITLE "1Q_t_0349-0358_08"
    INDEX 01 00:08:10
  TRACK 09 AUDIO
    TITLE "1Q_t_0349-0358_09"
    INDEX 01 00:09:11
  TRACK 10 AUDIO
    TITLE "1Q_t_0349-0358_10"
    INDEX 01 00:09:27
  TRACK 11 AUDIO
    TITLE "1Q_t_0349-0358_11"
    INDEX 01 00:12:04
  TRACK 12 AUDIO
    TITLE "1Q_t_0349-0358_12"
    INDEX 01 00:12:17
  TRACK 13 AUDIO
    TITLE "1Q_t_0349-0358_13"
    INDEX 01 00:18:75
  TRACK 14 AUDIO
    TITLE "1Q_t_0349-0358_14"
    INDEX 01 00:19:51
  TRACK 15 AUDIO
    TITLE "1Q_t_0349-0358_15"
    INDEX 01 00:20:74
  TRACK 16 AUDIO
    TITLE "1Q_t_0349-0358_16"
    INDEX 01 00:21:14
  TRACK 17 AUDIO
    TITLE "1Q_t_0349-0358_17"
    INDEX 01 00:24:25
  TRACK 18 AUDIO
    TITLE "1Q_t_0349-0358_18"
    INDEX 01 00:24:42
  TRACK 19 AUDIO
    TITLE "1Q_t_0349-0358_19"
    INDEX 01 00:30:09
  TRACK 20 AUDIO
    TITLE "1Q_t_0349-0358_20"
    INDEX 01 00:30:62
  TRACK 21 AUDIO
    TITLE "1Q_t_0349-0358_21"
    INDEX 01 00:32:14
  TRACK 22 AUDIO
    TITLE "1Q_t_0349-0358_22"
    INDEX 01 00:32:30
  TRACK 23 AUDIO
    TITLE "1Q_t_0349-0358_23"
    INDEX 01 00:34:44
  TRACK 24 AUDIO
    TITLE "1Q_t_0349-0358_24"
    INDEX 01 00:34:58
  TRACK 25 AUDIO
    TITLE "1Q_t_0349-0358_25"
    INDEX 01 00:41:31
  TRACK 26 AUDIO
    TITLE "1Q_t_0349-0358_26"
    INDEX 01 00:42:09
  TRACK 27 AUDIO
    TITLE "1Q_t_0349-0358_27"
    INDEX 01 00:43:24
  TRACK 28 AUDIO
    TITLE "1Q_t_0349-0358_28"
    INDEX 01 00:43:40
  TRACK 29 AUDIO
    TITLE "1Q_t_0349-0358_29"
    INDEX 01 00:45:62
  TRACK 30 AUDIO
    TITLE "1Q_t_0349-0358_30"
    INDEX 01 00:46:03
  TRACK 31 AUDIO
    TITLE "1Q_t_0349-0358_31"
    INDEX 01 00:51:66
  TRACK 32 AUDIO
    TITLE "1Q_t_0349-0358_32"
    INDEX 01 00:52:44
  TRACK 33 AUDIO
    TITLE "1Q_t_0349-0358_33"
    INDEX 01 00:53:67
  TRACK 34 AUDIO
    TITLE "1Q_t_0349-0358_34"
    INDEX 01 00:54:08
  TRACK 35 AUDIO
    TITLE "1Q_t_0349-0358_35"
    INDEX 01 00:57:24
  TRACK 36 AUDIO
    TITLE "1Q_t_0349-0358_36"
    INDEX 01 00:57:38
  TRACK 37 AUDIO
    TITLE "1Q_t_0349-0358_37"
    INDEX 01 01:04:12
  TRACK 38 AUDIO
    TITLE "1Q_t_0349-0358_38"
    INDEX 01 01:04:65
  TRACK 39 AUDIO
    TITLE "1Q_t_0349-0358_39"
    INDEX 01 01:05:72
  TRACK 40 AUDIO
    TITLE "1Q_t_0349-0358_40"
    INDEX 01 01:06:13
  TRACK 41 AUDIO
    TITLE "1Q_t_0349-0358_41"
    INDEX 01 01:08:63
  TRACK 42 AUDIO
    TITLE "1Q_t_0349-0358_42"
    INDEX 01 01:09:02
  TRACK 43 AUDIO
    TITLE "1Q_t_0349-0358_43"
    INDEX 01 01:15:36
  TRACK 44 AUDIO
    TITLE "1Q_t_0349-0358_44"
    INDEX 01 01:16:17
  TRACK 45 AUDIO
    TITLE "1Q_t_0349-0358_45"
    INDEX 01 01:17:56
  TRACK 46 AUDIO
    TITLE "1Q_t_0349-0358_46"
    INDEX 01 01:17:72
  TRACK 47 AUDIO
    TITLE "1Q_t_0349-0358_47"
    INDEX 01 01:19:27
  TRACK 48 AUDIO
    TITLE "1Q_t_0349-0358_48"
    INDEX 01 01:19:41
  TRACK 49 AUDIO
    TITLE "1Q_t_0349-0358_49"
    INDEX 01 01:26:26
  TRACK 50 AUDIO
    TITLE "1Q_t_0349-0358_50"
    INDEX 01 01:27:07
  TRACK 51 AUDIO
    TITLE "1Q_t_0349-0358_51"
    INDEX 01 01:28:40
  TRACK 52 AUDIO
    TITLE "1Q_t_0349-0358_52"
    INDEX 01 01:28:58
  TRACK 53 AUDIO
    TITLE "1Q_t_0349-0358_53"
    INDEX 01 01:30:04
  TRACK 54 AUDIO
    TITLE "1Q_t_0349-0358_54"
    INDEX 01 01:30:19
  TRACK 55 AUDIO
    TITLE "1Q_t_0349-0358_55"
    INDEX 01 01:35:19
  TRACK 56 AUDIO
    TITLE "1Q_t_0349-0358_56"
    INDEX 01 01:36:01
  TRACK 57 AUDIO
    TITLE "1Q_t_0349-0358_57"
    INDEX 01 01:37:08
  TRACK 58 AUDIO
    TITLE "1Q_t_0349-0358_58"
    INDEX 01 01:37:25
  TRACK 59 AUDIO
    TITLE "1Q_t_0349-0358_59"
    INDEX 01 01:39:20
  TRACK 60 AUDIO
    TITLE "1Q_t_0349-0358_60"
    INDEX 01 01:39:36
  TRACK 61 AUDIO
    TITLE "1Q_t_0349-0358_61"
    INDEX 01 01:45:15
